# xmcd
#
# Track frame offsets: 
#        150
#        21487
#        49973
#        69267
#        85159
#        99668
#        130193
#        162329
#        175856
#        210770
#
# Disc length: 3014 seconds
#
# Revision: 0
# Processed by: cddbd v1.5.1PL0 Copyright (c) Steve Scherf et al.
# Submitted via: ExactAudioCopy v0.95a3
#
DISCID=7f0bc40a
DTITLE=Aretha Franklin - Hey now hey (The other side of the sky)
DYEAR=1973
DGENRE=R&B
TTITLE0=Hey Now Hey (The Other Side of the Sky)
TTITLE1=Somewhere
TTITLE2=So Swell When Your Well
TTITLE3=Angel
TTITLE4=Sister from Texas
TTITLE5=Mister Spain
TTITLE6=That's the Way I Feel About Cha
TTITLE7=Moody's Mood
TTITLE8=Just Right Tonight
TTITLE9=Master of Eyes (The Deepness of Your Eyes)
EXTD=
EXTT0=
EXTT1=
EXTT2=
EXTT3=
EXTT4=
EXTT5=
EXTT6=
EXTT7=
EXTT8=
EXTT9=
PLAYORDER=
